<mxfile host="65bd71144e">
    <diagram name="Page-1" id="d9GU-Ya7itkBXyBkNGxI">
        <mxGraphModel dx="373" dy="1713" grid="1" gridSize="10" guides="1" tooltips="1" connect="1" arrows="1" fold="1" page="1" pageScale="1" pageWidth="850" pageHeight="1100" math="0" shadow="0">
            <root>
                <mxCell id="0"/>
                <mxCell id="1" parent="0"/>
                <object label="Spotify API" asdf="adf" id="_dCURCPxB93ATHjSGUKu-1">
                    <mxCell style="swimlane;fontStyle=0;childLayout=stackLayout;horizontal=1;startSize=30;horizontalStack=0;resizeParent=1;resizeParentMax=0;resizeLast=0;collapsible=1;marginBottom=0;whiteSpace=wrap;html=1;" parent="1" vertex="1">
                        <mxGeometry x="30" y="-820" width="140" height="120" as="geometry">
                            <mxRectangle x="150" y="70" width="60" height="30" as="alternateBounds"/>
                        </mxGeometry>
                    </mxCell>
                </object>
                <mxCell id="_dCURCPxB93ATHjSGUKu-2" value="Oauth" style="text;strokeColor=none;fillColor=none;align=left;verticalAlign=middle;spacingLeft=4;spacingRight=4;overflow=hidden;points=[[0,0.5],[1,0.5]];portConstraint=eastwest;rotatable=0;whiteSpace=wrap;html=1;" parent="_dCURCPxB93ATHjSGUKu-1" vertex="1">
                    <mxGeometry y="30" width="140" height="30" as="geometry"/>
                </mxCell>
                <mxCell id="_dCURCPxB93ATHjSGUKu-3" value="Item 2" style="text;strokeColor=none;fillColor=none;align=left;verticalAlign=middle;spacingLeft=4;spacingRight=4;overflow=hidden;points=[[0,0.5],[1,0.5]];portConstraint=eastwest;rotatable=0;whiteSpace=wrap;html=1;" parent="_dCURCPxB93ATHjSGUKu-1" vertex="1">
                    <mxGeometry y="60" width="140" height="30" as="geometry"/>
                </mxCell>
                <mxCell id="_dCURCPxB93ATHjSGUKu-4" value="Item 3" style="text;strokeColor=none;fillColor=none;align=left;verticalAlign=middle;spacingLeft=4;spacingRight=4;overflow=hidden;points=[[0,0.5],[1,0.5]];portConstraint=eastwest;rotatable=0;whiteSpace=wrap;html=1;" parent="_dCURCPxB93ATHjSGUKu-1" vertex="1">
                    <mxGeometry y="90" width="140" height="30" as="geometry"/>
                </mxCell>
                <object label="&lt;div&gt;Core API&lt;/div&gt;" asdf="adf" id="_dCURCPxB93ATHjSGUKu-5">
                    <mxCell style="swimlane;fontStyle=0;childLayout=stackLayout;horizontal=1;startSize=30;horizontalStack=0;resizeParent=1;resizeParentMax=0;resizeLast=0;collapsible=1;marginBottom=0;whiteSpace=wrap;html=1;" parent="1" vertex="1">
                        <mxGeometry x="190" y="-820" width="140" height="120" as="geometry">
                            <mxRectangle x="660" y="430" width="60" height="30" as="alternateBounds"/>
                        </mxGeometry>
                    </mxCell>
                </object>
                <mxCell id="_dCURCPxB93ATHjSGUKu-6" value="&lt;div&gt;Oauth&lt;/div&gt;" style="text;strokeColor=none;fillColor=none;align=left;verticalAlign=middle;spacingLeft=4;spacingRight=4;overflow=hidden;points=[[0,0.5],[1,0.5]];portConstraint=eastwest;rotatable=0;whiteSpace=wrap;html=1;" parent="_dCURCPxB93ATHjSGUKu-5" vertex="1">
                    <mxGeometry y="30" width="140" height="30" as="geometry"/>
                </mxCell>
                <mxCell id="_dCURCPxB93ATHjSGUKu-7" value="Item 2" style="text;strokeColor=none;fillColor=none;align=left;verticalAlign=middle;spacingLeft=4;spacingRight=4;overflow=hidden;points=[[0,0.5],[1,0.5]];portConstraint=eastwest;rotatable=0;whiteSpace=wrap;html=1;" parent="_dCURCPxB93ATHjSGUKu-5" vertex="1">
                    <mxGeometry y="60" width="140" height="30" as="geometry"/>
                </mxCell>
                <mxCell id="_dCURCPxB93ATHjSGUKu-8" value="Item 3" style="text;strokeColor=none;fillColor=none;align=left;verticalAlign=middle;spacingLeft=4;spacingRight=4;overflow=hidden;points=[[0,0.5],[1,0.5]];portConstraint=eastwest;rotatable=0;whiteSpace=wrap;html=1;" parent="_dCURCPxB93ATHjSGUKu-5" vertex="1">
                    <mxGeometry y="90" width="140" height="30" as="geometry"/>
                </mxCell>
                <object label="Frontend" asdf="adf" id="_dCURCPxB93ATHjSGUKu-9">
                    <mxCell style="swimlane;fontStyle=0;childLayout=stackLayout;horizontal=1;startSize=30;horizontalStack=0;resizeParent=1;resizeParentMax=0;resizeLast=0;collapsible=1;marginBottom=0;whiteSpace=wrap;html=1;" parent="1" vertex="1">
                        <mxGeometry x="100" y="-690" width="140" height="120" as="geometry">
                            <mxRectangle x="660" y="430" width="60" height="30" as="alternateBounds"/>
                        </mxGeometry>
                    </mxCell>
                </object>
                <mxCell id="_dCURCPxB93ATHjSGUKu-10" value="&lt;div&gt;Oauth&lt;/div&gt;" style="text;strokeColor=none;fillColor=none;align=left;verticalAlign=middle;spacingLeft=4;spacingRight=4;overflow=hidden;points=[[0,0.5],[1,0.5]];portConstraint=eastwest;rotatable=0;whiteSpace=wrap;html=1;" parent="_dCURCPxB93ATHjSGUKu-9" vertex="1">
                    <mxGeometry y="30" width="140" height="30" as="geometry"/>
                </mxCell>
                <mxCell id="_dCURCPxB93ATHjSGUKu-11" value="Item 2" style="text;strokeColor=none;fillColor=none;align=left;verticalAlign=middle;spacingLeft=4;spacingRight=4;overflow=hidden;points=[[0,0.5],[1,0.5]];portConstraint=eastwest;rotatable=0;whiteSpace=wrap;html=1;" parent="_dCURCPxB93ATHjSGUKu-9" vertex="1">
                    <mxGeometry y="60" width="140" height="30" as="geometry"/>
                </mxCell>
                <mxCell id="_dCURCPxB93ATHjSGUKu-12" value="Item 3" style="text;strokeColor=none;fillColor=none;align=left;verticalAlign=middle;spacingLeft=4;spacingRight=4;overflow=hidden;points=[[0,0.5],[1,0.5]];portConstraint=eastwest;rotatable=0;whiteSpace=wrap;html=1;" parent="_dCURCPxB93ATHjSGUKu-9" vertex="1">
                    <mxGeometry y="90" width="140" height="30" as="geometry"/>
                </mxCell>
                <mxCell id="_dCURCPxB93ATHjSGUKu-14" style="edgeStyle=orthogonalEdgeStyle;rounded=0;orthogonalLoop=1;jettySize=auto;html=1;exitX=0;exitY=0.5;exitDx=0;exitDy=0;entryX=0;entryY=0.5;entryDx=0;entryDy=0;" parent="1" source="_dCURCPxB93ATHjSGUKu-10" target="_dCURCPxB93ATHjSGUKu-2" edge="1">
                    <mxGeometry relative="1" as="geometry"/>
                </mxCell>
                <mxCell id="_dCURCPxB93ATHjSGUKu-16" style="edgeStyle=orthogonalEdgeStyle;rounded=0;orthogonalLoop=1;jettySize=auto;html=1;exitX=0;exitY=0.5;exitDx=0;exitDy=0;entryX=-0.036;entryY=0.267;entryDx=0;entryDy=0;entryPerimeter=0;" parent="1" source="_dCURCPxB93ATHjSGUKu-2" target="_dCURCPxB93ATHjSGUKu-10" edge="1">
                    <mxGeometry relative="1" as="geometry">
                        <mxPoint x="20" y="-640" as="targetPoint"/>
                    </mxGeometry>
                </mxCell>
                <mxCell id="_dCURCPxB93ATHjSGUKu-17" style="edgeStyle=orthogonalEdgeStyle;rounded=0;orthogonalLoop=1;jettySize=auto;html=1;exitX=1;exitY=0.5;exitDx=0;exitDy=0;entryX=1;entryY=0.5;entryDx=0;entryDy=0;" parent="1" source="_dCURCPxB93ATHjSGUKu-10" target="_dCURCPxB93ATHjSGUKu-6" edge="1">
                    <mxGeometry relative="1" as="geometry"/>
                </mxCell>
                <object label="&lt;div&gt;App functioning&lt;/div&gt;" asdf="adf" id="_dCURCPxB93ATHjSGUKu-18">
                    <mxCell style="swimlane;fontStyle=0;childLayout=stackLayout;horizontal=1;startSize=30;horizontalStack=0;resizeParent=1;resizeParentMax=0;resizeLast=0;collapsible=1;marginBottom=0;whiteSpace=wrap;html=1;" parent="1" vertex="1">
                        <mxGeometry x="560" y="-800" width="140" height="120" as="geometry">
                            <mxRectangle x="660" y="430" width="60" height="30" as="alternateBounds"/>
                        </mxGeometry>
                    </mxCell>
                </object>
                <mxCell id="_dCURCPxB93ATHjSGUKu-19" value="&lt;div&gt;Login spotify&lt;/div&gt;" style="text;strokeColor=none;fillColor=none;align=left;verticalAlign=middle;spacingLeft=4;spacingRight=4;overflow=hidden;points=[[0,0.5],[1,0.5]];portConstraint=eastwest;rotatable=0;whiteSpace=wrap;html=1;" parent="_dCURCPxB93ATHjSGUKu-18" vertex="1">
                    <mxGeometry y="30" width="140" height="30" as="geometry"/>
                </mxCell>
                <mxCell id="_dCURCPxB93ATHjSGUKu-20" value="CRUDJ Rooms" style="text;strokeColor=none;fillColor=none;align=left;verticalAlign=middle;spacingLeft=4;spacingRight=4;overflow=hidden;points=[[0,0.5],[1,0.5]];portConstraint=eastwest;rotatable=0;whiteSpace=wrap;html=1;" parent="_dCURCPxB93ATHjSGUKu-18" vertex="1">
                    <mxGeometry y="60" width="140" height="30" as="geometry"/>
                </mxCell>
                <mxCell id="_dCURCPxB93ATHjSGUKu-21" value="Item 3" style="text;strokeColor=none;fillColor=none;align=left;verticalAlign=middle;spacingLeft=4;spacingRight=4;overflow=hidden;points=[[0,0.5],[1,0.5]];portConstraint=eastwest;rotatable=0;whiteSpace=wrap;html=1;" parent="_dCURCPxB93ATHjSGUKu-18" vertex="1">
                    <mxGeometry y="90" width="140" height="30" as="geometry"/>
                </mxCell>
                <object label="&lt;div&gt;CRUDJ Rooms&lt;/div&gt;" asdf="adf" id="_dCURCPxB93ATHjSGUKu-22">
                    <mxCell style="swimlane;fontStyle=0;childLayout=stackLayout;horizontal=1;startSize=30;horizontalStack=0;resizeParent=1;resizeParentMax=0;resizeLast=0;collapsible=1;marginBottom=0;whiteSpace=wrap;html=1;" parent="1" vertex="1">
                        <mxGeometry x="400" y="-700" width="140" height="180" as="geometry">
                            <mxRectangle x="660" y="430" width="60" height="30" as="alternateBounds"/>
                        </mxGeometry>
                    </mxCell>
                </object>
                <mxCell id="_dCURCPxB93ATHjSGUKu-23" value="&lt;div&gt;Create Room&lt;/div&gt;" style="text;strokeColor=none;fillColor=none;align=left;verticalAlign=middle;spacingLeft=4;spacingRight=4;overflow=hidden;points=[[0,0.5],[1,0.5]];portConstraint=eastwest;rotatable=0;whiteSpace=wrap;html=1;" parent="_dCURCPxB93ATHjSGUKu-22" vertex="1">
                    <mxGeometry y="30" width="140" height="30" as="geometry"/>
                </mxCell>
                <mxCell id="_dCURCPxB93ATHjSGUKu-24" value="&lt;div&gt;Request Room by Id&lt;/div&gt;" style="text;strokeColor=none;fillColor=none;align=left;verticalAlign=middle;spacingLeft=4;spacingRight=4;overflow=hidden;points=[[0,0.5],[1,0.5]];portConstraint=eastwest;rotatable=0;whiteSpace=wrap;html=1;" parent="_dCURCPxB93ATHjSGUKu-22" vertex="1">
                    <mxGeometry y="60" width="140" height="30" as="geometry"/>
                </mxCell>
                <mxCell id="_dCURCPxB93ATHjSGUKu-25" value="Update Room ???" style="text;strokeColor=none;fillColor=none;align=left;verticalAlign=middle;spacingLeft=4;spacingRight=4;overflow=hidden;points=[[0,0.5],[1,0.5]];portConstraint=eastwest;rotatable=0;whiteSpace=wrap;html=1;" parent="_dCURCPxB93ATHjSGUKu-22" vertex="1">
                    <mxGeometry y="90" width="140" height="30" as="geometry"/>
                </mxCell>
                <mxCell id="_dCURCPxB93ATHjSGUKu-26" value="Delete Room" style="text;strokeColor=none;fillColor=none;spacingLeft=4;spacingRight=4;overflow=hidden;rotatable=0;points=[[0,0.5],[1,0.5]];portConstraint=eastwest;fontSize=12;whiteSpace=wrap;html=1;" parent="_dCURCPxB93ATHjSGUKu-22" vertex="1">
                    <mxGeometry y="120" width="140" height="30" as="geometry"/>
                </mxCell>
                <mxCell id="_dCURCPxB93ATHjSGUKu-27" value="Join Room" style="text;strokeColor=none;fillColor=none;spacingLeft=4;spacingRight=4;overflow=hidden;rotatable=0;points=[[0,0.5],[1,0.5]];portConstraint=eastwest;fontSize=12;whiteSpace=wrap;html=1;" parent="_dCURCPxB93ATHjSGUKu-22" vertex="1">
                    <mxGeometry y="150" width="140" height="30" as="geometry"/>
                </mxCell>
                <mxCell id="_dCURCPxB93ATHjSGUKu-28" value="&lt;h1&gt;Spotify App&lt;br&gt;&lt;/h1&gt;&lt;p&gt;App where you can Create/Join public rooms to listen to a spotify playlist.&lt;br&gt;&lt;/p&gt;&lt;p&gt;Users will be able to join the rooms and listen, with an option to cast votes to skip current song.&lt;/p&gt;&lt;p&gt;Rooms can be joined via a link to that room, and will be deleted on room's creator exiting the app.&lt;/p&gt;&lt;p&gt;In order to create/join a room you will need to be logged into your spotify account.&lt;br&gt;&lt;/p&gt;" style="text;html=1;strokeColor=none;fillColor=none;spacing=5;spacingTop=-20;whiteSpace=wrap;overflow=hidden;rounded=0;" parent="1" vertex="1">
                    <mxGeometry x="270" y="-1080" width="315" height="210" as="geometry"/>
                </mxCell>
            </root>
        </mxGraphModel>
    </diagram>
</mxfile>